<svg xmlns="http://www.w3.org/2000/svg" xmlns:xlink="http://www.w3.org/1999/xlink" width="220.011" height="170.952" viewBox="0 0 220.011 170.952">
  <defs>
    <radialGradient id="radial-gradient" cx="0.508" cy="0.471" fx="0.7505170106887817" fy="0.14649143815040588" r="0.499" gradientTransform="matrix(0.97, 0.244, -0.244, 0.97, -1.664, -0.08)" gradientUnits="objectBoundingBox">
      <stop offset="0" stop-color="#fff"/>
      <stop offset="0.715" stop-color="#009cde"/>
      <stop offset="0.994" stop-color="#00587b"/>
    </radialGradient>
    <radialGradient id="radial-gradient-2" cx="0.501" cy="0.485" r="13.709" gradientTransform="translate(0.487) scale(0.026 1)" gradientUnits="objectBoundingBox">
      <stop offset="0" stop-color="#575756" stop-opacity="0.588"/>
      <stop offset="0.994" stop-color="#acabab" stop-opacity="0.341"/>
    </radialGradient>
    <radialGradient id="radial-gradient-3" cx="0.959" cy="0.49" r="2.272" gradientTransform="translate(0.285) scale(0.43 1)" gradientUnits="objectBoundingBox">
      <stop offset="0" stop-color="#00587b"/>
      <stop offset="0.08" stop-color="#005a7f"/>
      <stop offset="0.179" stop-color="#00628a"/>
      <stop offset="0.29" stop-color="#006f9c"/>
      <stop offset="0.409" stop-color="#0080b5"/>
      <stop offset="0.533" stop-color="#0095d3"/>
      <stop offset="0.576" stop-color="#009cde"/>
      <stop offset="0.748" stop-color="#009cdd"/>
      <stop offset="0.81" stop-color="#0099d8"/>
      <stop offset="0.854" stop-color="#0093d1"/>
      <stop offset="0.89" stop-color="#008cc6"/>
      <stop offset="0.92" stop-color="#0082b7"/>
      <stop offset="0.947" stop-color="#0075a5"/>
      <stop offset="0.971" stop-color="#00668e"/>
      <stop offset="0.988" stop-color="#00587b"/>
    </radialGradient>
    <radialGradient id="radial-gradient-4" cx="0.899" cy="0.935" r="1.149" gradientTransform="matrix(0.729, 0.811, -1.011, 0.585, 2.326, -0.57)" xlink:href="#radial-gradient-3"/>
    <radialGradient id="radial-gradient-5" cx="0.887" cy="0.058" r="1.143" gradientTransform="matrix(0.728, -0.818, 1.034, 0.576, 1.248, 1.674)" xlink:href="#radial-gradient-3"/>
  </defs>
  <g id="Calque_4" transform="translate(-18.5 -20.758)">
    <g id="Group_5162" data-name="Group 5162" transform="translate(71.729 20.758)">
      <path id="Path_3498" data-name="Path 3498" d="M132.441,65.751a16.228,16.228,0,1,1-11.79-19.689A16.221,16.221,0,0,1,132.441,65.751Z" transform="translate(-59.867 -17.167)" fill="url(#radial-gradient)"/>
      <path id="Path_3499" data-name="Path 3499" d="M164.629,114.345c0,.572-19.918,1.145-44.414,1.145S75.8,115.032,75.8,114.345c0-.572,19.918-1.145,44.414-1.145C144.825,113.2,164.629,113.658,164.629,114.345Z" transform="translate(-63.437 -7.381)" fill="url(#radial-gradient-2)"/>
      <path id="Path_3500" data-name="Path 3500" d="M121.892,40.3C90.527,40.3,65,51.175,65,64.682s25.527,24.5,56.892,24.5,56.892-10.989,56.892-24.5C178.669,51.175,153.256,40.3,121.892,40.3Zm-1.717,44.071c-27.587,0-49.909-9.387-49.909-21.063s22.322-21.062,49.909-21.062,49.909,9.387,49.909,21.063C170.084,74.87,147.762,84.371,120.175,84.371Z" transform="translate(-65 -17.93)" fill="url(#radial-gradient-3)"/>
      <path id="Path_3501" data-name="Path 3501" d="M139.407,55C121.092,29.472,97.282,15.278,86.293,23.176s-4.922,34.913,13.393,60.44C118,109.029,141.811,123.337,152.8,115.439,163.789,107.426,157.837,80.411,139.407,55ZM102.662,79.381C86.637,57.059,81.142,33.364,90.529,26.61s30.106,5.838,46.246,28.16,21.52,46.017,12.134,52.771C139.522,114.409,118.8,101.7,102.662,79.381Z" transform="translate(-62.712 -20.724)" fill="url(#radial-gradient-4)"/>
      <path id="Path_3502" data-name="Path 3502" d="M99.523,55.262C81.436,80.9,75.713,108.032,86.816,115.816c10.989,7.784,34.684-6.754,52.771-32.4s23.81-52.771,12.706-60.555S117.609,29.506,99.523,55.262Zm35.142,26.672c-15.911,22.551-36.516,35.371-46.017,28.732S84.3,80.331,100.209,57.78s36.4-35.371,45.9-28.732S150.462,59.383,134.665,81.933Z" transform="translate(-62.663 -20.758)" fill="url(#radial-gradient-5)"/>
    </g>
    <g id="Group_5172" data-name="Group 5172" transform="translate(18.5 141.458)">
      <g id="Group_5171" data-name="Group 5171">
        <g id="Group_5169" data-name="Group 5169" transform="translate(0)">
          <path id="Path_3535" data-name="Path 3535" d="M18.5,131.8h3.205v23.81H18.5Z" transform="translate(-18.5 -125.39)" fill="#009cde"/>
          <path id="Path_3536" data-name="Path 3536" d="M26,131.8h4.35L37.9,151.832,45.46,131.8h4.35v23.81H46.834v-19.8h-.114l-7.441,19.8H36.531l-7.441-19.8h-.114v19.8H26Z" transform="translate(-17.415 -125.39)" fill="#009cde"/>
          <path id="Path_3537" data-name="Path 3537" d="M68.243,139.07c-.687-3.32-3.32-5.037-6.639-5.037-5.724,0-8.013,4.693-8.013,9.615,0,5.38,2.4,9.959,8.127,9.959,4.121,0,6.525-2.976,6.868-6.868h3.205c-.572,5.952-4.35,9.5-10.3,9.5-7.441,0-10.989-5.495-10.989-12.363S54.392,131.4,61.718,131.4c4.922,0,9.043,2.633,9.844,7.784h-3.32Z" transform="translate(-13.87 -125.448)" fill="#009cde"/>
          <g id="Group_5168" data-name="Group 5168" transform="translate(71.086)">
            <path id="Path_3538" data-name="Path 3538" d="M80.829,131.8H92.047c4.464,0,7.212,2.4,7.212,6.3,0,2.862-1.259,5.266-4.121,6.067v.114c2.747.572,3.32,2.518,3.549,4.922.229,2.289.114,4.922,1.374,6.525H96.511c-.916-.916-.343-3.549-.916-5.838-.343-2.289-.916-4.35-4.006-4.35H83.805v10.188H80.6V131.8Zm9.73,10.989c2.976,0,5.495-.8,5.495-4.235,0-2.289-1.259-4.121-4.235-4.121h-7.9v8.356Z" transform="translate(-80.6 -125.39)"/>
            <path id="Path_3539" data-name="Path 3539" d="M100.8,132.61h16.484v2.633H104.005V142.8h12.363v2.633H104.005v8.242H117.4v2.633H100.8Zm8.471-6.41h3.663l-4.35,4.808h-2.175Z" transform="translate(-77.677 -126.2)"/>
            <path id="Path_3540" data-name="Path 3540" d="M132.525,138.855c-.343-3.434-2.633-4.922-5.952-4.922-2.633,0-5.38.916-5.38,4.121,0,2.976,3.778,3.32,7.669,4.235,3.778.916,7.555,2.175,7.555,6.868,0,5.037-4.922,7.1-9.272,7.1-5.38,0-9.844-2.633-9.844-8.356h2.976c0,4.006,3.32,5.723,6.983,5.723,2.862,0,6.067-.916,6.067-4.35,0-3.32-3.778-3.892-7.555-4.693s-7.669-1.946-7.669-6.3c0-4.808,4.35-6.983,8.7-6.983,4.922,0,8.585,2.289,8.814,7.555Z" transform="translate(-75.29 -125.462)"/>
            <path id="Path_3541" data-name="Path 3541" d="M137.5,131.8h16.484v2.633H140.705v7.555h12.363v2.633H140.705v8.242H154.1V155.5H137.5V131.8Z" transform="translate(-72.367 -125.39)"/>
            <path id="Path_3542" data-name="Path 3542" d="M162.187,131.8h3.549l9.272,23.81h-3.549l-2.633-7.212H158.752l-2.633,7.212H152.8Zm-2.4,13.965h8.127l-4.006-11.1h-.114Z" transform="translate(-70.153 -125.39)"/>
            <path id="Path_3543" data-name="Path 3543" d="M193.217,147.025c0,5.952-3.434,9.158-9.387,9.158-6.181,0-9.73-2.862-9.73-9.158V131.8h3.205v15.225c0,4.235,2.4,6.525,6.639,6.525,4.006,0,6.181-2.289,6.181-6.525V131.8h3.205v15.225Z" transform="translate(-67.071 -125.39)"/>
            <path id="Path_3544" data-name="Path 3544" d="M201.242,143.362l-7.9-11.561h3.778l5.952,9.272,6.181-9.272H212.8l-7.9,11.561,8.356,12.248h-3.892l-6.41-9.844-6.639,9.844H193Z" transform="translate(-64.336 -125.39)"/>
          </g>
        </g>
        <g id="Group_5170" data-name="Group 5170" transform="translate(0 35.486)">
          <path id="Path_3545" data-name="Path 3545" d="M25.368,164.1h-4.35l-.8,4.35h4.922L24.91,169.7H18.5l2.289-11.9h6.067l-.229,1.259H22.049l-.687,3.778h4.35Z" transform="translate(-18.5 -157.113)"/>
          <path id="Path_3546" data-name="Path 3546" d="M25.8,169.792,28.2,157.2h1.488l-2.4,12.592Z" transform="translate(-17.444 -157.2)"/>
          <path id="Path_3547" data-name="Path 3547" d="M35.467,168.842a6.577,6.577,0,0,1-2.862.687c-2.289,0-3.205-1.488-3.205-3.434,0-2.633,1.946-5.495,4.693-5.495a2.273,2.273,0,0,1,2.518,2.175c0,2.289-2.518,2.862-5.723,2.747a2.744,2.744,0,0,0,.229,1.6,1.915,1.915,0,0,0,1.946,1.145,5.552,5.552,0,0,0,2.289-.572Zm-1.6-7.1c-1.374,0-2.4,1.374-2.747,2.747,2.289,0,4.121-.229,4.121-1.6A1.208,1.208,0,0,0,33.864,161.745Z" transform="translate(-16.923 -156.708)"/>
          <path id="Path_3548" data-name="Path 3548" d="M42.238,168.971a6.127,6.127,0,0,1-2.518.458,3.122,3.122,0,0,1-3.32-3.32,5.4,5.4,0,0,1,5.266-5.609,5.743,5.743,0,0,1,1.832.343l-.458,1.145a4.061,4.061,0,0,0-1.488-.343c-2.175,0-3.663,2.175-3.663,4.235a2.021,2.021,0,0,0,2.175,2.289,4.041,4.041,0,0,0,1.946-.458Z" transform="translate(-15.91 -156.723)"/>
          <path id="Path_3549" data-name="Path 3549" d="M46.734,158.7l-.458,2.289h2.06l-.229,1.145h-2.06l-.8,4.121a5.573,5.573,0,0,0-.114,1.374.723.723,0,0,0,.8.8h.687l-.114,1.145a3.189,3.189,0,0,1-1.145.114,1.654,1.654,0,0,1-1.832-1.717,4.172,4.172,0,0,1,.229-1.6l.8-4.35H43.3l.229-1.145h1.259l.458-1.832Z" transform="translate(-14.911 -156.983)"/>
          <path id="Path_3550" data-name="Path 3550" d="M47.8,169.314l1.03-5.495c.229-1.145.343-2.289.458-3.091h1.259c-.114.572-.114,1.259-.229,1.832h0a3.2,3.2,0,0,1,2.633-2.06h.458l-.229,1.488h-.343c-1.259,0-2.4,1.488-2.747,3.549l-.687,3.778H47.8Z" transform="translate(-14.26 -156.723)"/>
          <path id="Path_3551" data-name="Path 3551" d="M52.7,169.719l1.6-8.585h1.488l-1.6,8.585Zm1.946-10.989a1.026,1.026,0,0,1,1.03-1.03.842.842,0,0,1,.916.916,1.026,1.026,0,0,1-1.03,1.03A.842.842,0,0,1,54.646,158.73Z" transform="translate(-13.551 -157.128)"/>
          <path id="Path_3552" data-name="Path 3552" d="M62.138,168.971a6.127,6.127,0,0,1-2.518.458,3.122,3.122,0,0,1-3.32-3.32,5.4,5.4,0,0,1,5.266-5.609,5.743,5.743,0,0,1,1.832.343l-.458,1.145a4.061,4.061,0,0,0-1.488-.343c-2.175,0-3.663,2.175-3.663,4.235a2.021,2.021,0,0,0,2.175,2.289,4.041,4.041,0,0,0,1.946-.458Z" transform="translate(-13.03 -156.723)"/>
          <path id="Path_3553" data-name="Path 3553" d="M61.6,170.664a23.4,23.4,0,0,0,1.717-4.235l1.717-.229a29.623,29.623,0,0,1-2.4,4.35Z" transform="translate(-12.263 -155.898)"/>
          <path id="Path_3554" data-name="Path 3554" d="M71.089,157.8h6.067l-.229,1.259H72.349l-.8,4.006h4.235l-.229,1.259H71.318l-1.03,5.38H68.8Z" transform="translate(-11.222 -157.113)"/>
          <path id="Path_3555" data-name="Path 3555" d="M75.6,169.719l1.6-8.585h1.488l-1.6,8.585Zm1.946-10.989a1.026,1.026,0,0,1,1.03-1.03.842.842,0,0,1,.916.916,1.026,1.026,0,0,1-1.03,1.03A.842.842,0,0,1,77.546,158.73Z" transform="translate(-10.238 -157.128)"/>
          <path id="Path_3556" data-name="Path 3556" d="M82.949,157.2,81.8,162.809h0a3.591,3.591,0,0,1,2.976-1.717c1.832,0,2.633,1.6,2.633,3.091,0,2.633-1.946,5.838-5.38,5.838-1.488,0-2.633-.572-2.633-2.175,0-.458.114-.916.114-1.374l1.832-9.272ZM81,166.472a2.842,2.842,0,0,0-.114,1.03c0,.8.458,1.259,1.374,1.259,2.175,0,3.549-2.633,3.549-4.579,0-1.03-.458-2.06-1.6-2.06-1.259,0-2.633,1.259-2.976,3.32Z" transform="translate(-9.688 -157.2)"/>
          <path id="Path_3557" data-name="Path 3557" d="M93.467,168.842a6.577,6.577,0,0,1-2.862.687c-2.289,0-3.205-1.488-3.205-3.434,0-2.633,1.946-5.495,4.693-5.495a2.273,2.273,0,0,1,2.518,2.175c0,2.289-2.518,2.862-5.724,2.747a2.744,2.744,0,0,0,.229,1.6,1.915,1.915,0,0,0,1.946,1.145,5.552,5.552,0,0,0,2.289-.572Zm-1.6-7.1c-1.374,0-2.4,1.374-2.747,2.747,2.289,0,4.121-.229,4.121-1.6A1.208,1.208,0,0,0,91.864,161.745Z" transform="translate(-8.53 -156.708)"/>
          <path id="Path_3558" data-name="Path 3558" d="M94.3,169.314l1.03-5.495c.229-1.145.343-2.289.458-3.091h1.259c-.114.572-.114,1.259-.229,1.832h0a3.2,3.2,0,0,1,2.633-2.06h.458l-.229,1.488h-.343c-1.259,0-2.4,1.488-2.747,3.549l-.687,3.778H94.3Z" transform="translate(-7.532 -156.723)"/>
          <path id="Path_3559" data-name="Path 3559" d="M109.326,169.734a4.111,4.111,0,0,1-.8-1.145,4.656,4.656,0,0,1-3.32,1.259A2.891,2.891,0,0,1,102,166.872c0-1.832,1.488-3.091,2.976-3.892h0a4.36,4.36,0,0,1-.687-2.175,3.128,3.128,0,0,1,3.205-3.205,2.224,2.224,0,0,1,2.4,2.4q0,2.06-3.091,3.434h0c.687,1.145,1.488,2.4,2.175,3.32a14.557,14.557,0,0,0,1.832-3.549h1.374a11.654,11.654,0,0,1-2.518,4.579c.458.572.916,1.259,1.488,1.946Zm-1.488-1.946c-.572-.8-1.6-2.289-2.518-3.778a3.4,3.4,0,0,0-1.946,2.747,2.015,2.015,0,0,0,2.175,2.06A3.292,3.292,0,0,0,107.838,167.788Zm-2.289-7.1a4.219,4.219,0,0,0,.572,1.946c1.488-.687,2.289-1.488,2.289-2.633,0-.687-.343-1.374-1.145-1.374A1.931,1.931,0,0,0,105.549,160.691Z" transform="translate(-6.418 -157.142)"/>
          <path id="Path_3560" data-name="Path 3560" d="M118.034,159.059H114.6l.229-1.259H123.3l-.229,1.259h-3.549l-2.06,10.646h-1.488Z" transform="translate(-4.594 -157.113)"/>
          <path id="Path_3561" data-name="Path 3561" d="M126.567,168.842a6.577,6.577,0,0,1-2.862.687c-2.289,0-3.205-1.488-3.205-3.434,0-2.633,1.946-5.495,4.693-5.495a2.273,2.273,0,0,1,2.518,2.175c0,2.289-2.518,2.862-5.724,2.747a2.744,2.744,0,0,0,.229,1.6,1.915,1.915,0,0,0,1.946,1.145,5.552,5.552,0,0,0,2.289-.572Zm-1.6-7.1c-1.374,0-2.4,1.374-2.747,2.747,2.289,0,4.121-.229,4.121-1.6A1.208,1.208,0,0,0,124.964,161.745Z" transform="translate(-3.741 -156.708)"/>
          <path id="Path_3562" data-name="Path 3562" d="M127.4,169.792l2.4-12.592h1.488l-2.4,12.592Z" transform="translate(-2.742 -157.2)"/>
          <path id="Path_3563" data-name="Path 3563" d="M137.167,168.842a6.577,6.577,0,0,1-2.862.687c-2.289,0-3.205-1.488-3.205-3.434,0-2.633,1.946-5.495,4.693-5.495a2.273,2.273,0,0,1,2.518,2.175c0,2.289-2.518,2.862-5.724,2.747a2.744,2.744,0,0,0,.229,1.6,1.915,1.915,0,0,0,1.946,1.145,5.552,5.552,0,0,0,2.289-.572Zm-1.6-7.1c-1.374,0-2.4,1.374-2.747,2.747,2.289,0,4.121-.229,4.121-1.6A1.269,1.269,0,0,0,135.564,161.745Z" transform="translate(-2.207 -156.708)"/>
          <path id="Path_3564" data-name="Path 3564" d="M143.838,168.971a6.127,6.127,0,0,1-2.518.458,3.122,3.122,0,0,1-3.32-3.32,5.4,5.4,0,0,1,5.266-5.609,5.743,5.743,0,0,1,1.832.343l-.458,1.145a4.061,4.061,0,0,0-1.488-.343c-2.175,0-3.663,2.175-3.663,4.235a2.021,2.021,0,0,0,2.175,2.289,4.041,4.041,0,0,0,1.946-.458Z" transform="translate(-1.208 -156.723)"/>
          <path id="Path_3565" data-name="Path 3565" d="M152.613,164.163c0,2.633-1.832,5.38-4.693,5.38a3.244,3.244,0,0,1-3.32-3.549c0-2.862,1.946-5.495,4.693-5.495A3.39,3.39,0,0,1,152.613,164.163Zm-6.639,1.832a2.15,2.15,0,0,0,2.06,2.4c1.717,0,3.091-2.289,3.091-4.235,0-1.03-.458-2.4-1.946-2.4C147.233,161.759,145.974,163.934,145.974,165.995Z" transform="translate(-0.253 -156.723)"/>
          <path id="Path_3566" data-name="Path 3566" d="M152.5,169.314l1.145-6.067a10.965,10.965,0,0,0,.343-2.518h1.259l-.229,1.6h0a3.728,3.728,0,0,1,2.976-1.832,1.8,1.8,0,0,1,1.946,1.946,3.667,3.667,0,0,1,3.205-1.946,2.048,2.048,0,0,1,2.06,2.289,6.528,6.528,0,0,1-.114,1.488l-.916,5.037h-1.488l.916-4.922a3.894,3.894,0,0,0,.114-1.145c0-.916-.343-1.488-1.259-1.488-1.03,0-2.289,1.259-2.633,3.205l-.8,4.35h-1.374l.916-5.037a3.169,3.169,0,0,0,.114-1.03c0-.687-.229-1.488-1.259-1.488s-2.4,1.374-2.747,3.205l-.8,4.35Z" transform="translate(0.89 -156.723)"/>
        </g>
      </g>
    </g>
  </g>
</svg>
